<svg xmlns="http://www.w3.org/2000/svg" xmlns:xlink="http://www.w3.org/1999/xlink" xml:space="preserve" version="1.1" style="shape-rendering:geometricPrecision;text-rendering:geometricPrecision;image-rendering:optimizeQuality;" viewBox="0 0 846.66 1058.325" x="0px" y="0px" fill-rule="evenodd" clip-rule="evenodd"><defs><style type="text/css">
   
    .fil0 {fill:steelblue}
   
  </style></defs><g><path class="fil0" d="M228.86 430.55l0 245.01 -137.12 0 0 -147.78c0.92,0.33 1.85,0.64 2.8,0.92 16.8,4.98 33.55,0.02 45.97,-12.08l88.35 -86.07zm488.08 -315.02l-77.4 168.88c-4.02,8.79 -15.55,10.72 -22.26,4.01l-26.24 -26.22 -110.44 113.1c-11.79,12.62 -31.81,12.75 -43.73,0.21l-100.7 -105.6 -208.26 202.88c-28.33,27.55 -70.21,-15.53 -41.89,-43.07l230 -224.06c11.92,-11.6 31.26,-11.33 42.71,0.83l100.17 105.04 89.64 -91.8 -22.78 -22.76c-7.24,-7.24 -4.29,-19.48 5.16,-22.81l167.77 -76.88c11.66,-5.34 23.48,6.79 18.25,18.25zm-312.73 282.81l0 277.22 -137.11 0 0 -282.26 68.59 -66.82 68.52 71.86zm175.35 -67.65l0 344.87 -137.11 0 0 -244.56c17.45,6.21 37.79,2.04 51.35,-12.47l85.76 -87.84zm139.99 -146.64l35.37 0 0 491.51 -137.12 0 0 -335.5c14.52,4.35 31.23,-2.1 38.16,-17.23l63.59 -138.78zm-677.91 523.14l763.38 0 0 43.51 -763.38 0 0 -43.51z"/></g></svg>