<?xml version="1.0" encoding="utf-8"?>

<!DOCTYPE svg PUBLIC "-//W3C//DTD SVG 1.1//EN" "http://www.w3.org/Graphics/SVG/1.1/DTD/svg11.dtd">
<svg version="1.1" id="Layer_1" xmlns="http://www.w3.org/2000/svg" xmlns:xlink="http://www.w3.org/1999/xlink" x="0px" y="0px"
	 viewBox="282.8131 376.6145 1848.1869 3072.2222" enable-background="new 282.8131 376.6145 1848.1869 3072.2222"
	 xml:space="preserve">
<g>
	<path fill="#644D35" stroke="#644D35" stroke-width="0.5" d="M1069.7,461.34c20.3201-9.14,42-15.94,64.3401-17.37
		c18.09-1.14,36.9199,1.93,52.5299,11.53c7.92,4.77,14.9301,11.04,20.64,18.32c-0.02,0.79-0.0499,2.37-0.0599,3.16
		c21.8099,0.46,44.02,4.15,63.5,14.38c11.1799,6.3,21.63,14.66,28.09,25.94c5.92,9.96,8.39,22.33,5.08,33.6
		c-4.13,15.9-15.6,28.5-27.2599,39.49c-22.79,1.88-45.6801,2.22-68.54,2.69c-49.26,0.62-98.66-1.85-147.34-9.65
		c-19.01-3.11-37.91-7.04-56.4301-12.35c2.71-13.06,6.15-26.06,11.34-38.38c11.57-26.69,30.21-49.97,52.2-68.83
		C1068.64,463.18,1069.28,462.34,1069.7,461.34z"/>
	<path fill="#F1D4A8" stroke="#F1D4A8" stroke-width="0.5" d="M455.49,458.52c3.15-3.89,7.67-6.43,12.44-7.8
		c8.33-1.86,15.62,3.49,23.18,6.04c8.52,3.18,16.19,8.19,23.57,13.42c9.3,7.37,18.75,15.63,23.27,26.91c1.65,4.14,2.6,8.55,2.94,13
		c0.33,1.63,0.65,3.27,0.81,4.94c4.53-3.82,8.37-8.4,12.85-12.3c8.41-7.36,16.65-15.11,26.19-21.02c5.83-2.48,12.47-3.3,18.53-1.07
		c1.51,0.83,3.03,1.67,4.55,2.52c6.85,4.69,11.5,11.76,15.57,18.84c0.23,1.73,0.3,3.49,0.27,5.25c-1.18,1.31-2.31,2.74-3.95,3.49
		c-5.04,1.8-8.52,6.04-11.98,9.89c-5.36,6.79-10.33,13.92-14.54,21.5c-1.55,2.55-3.02,5.16-4.38,7.83
		c-0.67,1.24-1.34,2.48-2.01,3.73c-0.52,0.87-1.04,1.74-1.55,2.62c-0.48,0.9-0.94,1.8-1.4,2.71c-0.91,2.03-1.92,4-2.99,5.95
		c-0.84,1.77-1.7,3.54-2.54,5.3101c-0.98,1.98-2.03,3.93-3.05,5.89c-0.79,1.59-1.66,3.14-2.43,4.74c-1.54,3.69-3.41,7.23-5.11,10.85
		c-0.23,0.54-0.69,1.61-0.92,2.15c-3.43,7.58-7.69,15.4901-7.12,24.06c0.81,4.46,1.61,8.94,2.76,13.34
		c1.34,0.32,1.85,1.62,2.43,2.74c15.39,31.58,31.4,62.85,48.12,93.75c16.53,30.46,33.69,60.6,52.41,89.79
		c12.7401,19.56,25.9301,38.99,41.72,56.2599c6.27,7.09,13.96,12.6801,20.5,19.5c27.1,26.88,52.11,56.12,72.42,88.51
		c49.64,29.15,99.72,57.61,149.41,86.71c-20.83,38.5601-29.19,82.87-28.73,126.4401c0.52,40.42,7.55,80.77,20.52,119.0599
		c-15.22-11.48-30.2-23.2699-45.27-34.9399c-31.24-24.53-60.47-51.49-89.52-78.55c-41.3-39.01-81.2401-79.46-119.71-121.26
		c-5.1-5.9299-11.04-11.1-15.7-17.4099c-12.3-16.17-22.59-33.74-32.65-51.35c-19.56-34.75-37.46-70.38-54.96-106.2
		c-29.26-60.32-57.19-121.28-84.23-182.63c-1.61-4.38-4.42-8.39-5.12-13.05c-1.55-3.32-3.33-6.53-4.88-9.85
		c-0.5-0.08-1.48-0.23-1.97-0.31c-2.27-7.08-6.04-13.5-9.72-19.9c-2.13-4.16-3.59-8.78-6.83-12.27c-2.61-2.14-5.67-3.65-8.4-5.62
		c-6.85-4.44-13.48-9.19-20.1-13.95c-1.44-1.19-2.88-2.3701-4.35-3.5c-8.65-4.26-15.51-11.3101-21.08-19.05
		c-1-1.35-2.02-2.66-3.04-3.97c-3.98-5.75-7.93-11.53-11.42-17.59c-0.27-0.46-0.82-1.38-1.09-1.84c-0.51-0.84-1.01-1.67-1.51-2.49
		c-1.71-3.56-3.73-6.97-5.46-10.52c-3.56-6.72-6.32-13.79-9.02-20.89c-0.52-0.89-1.05-1.77-1.57-2.64
		c-2.37-4.79-1.98-10.11-2.87-15.2c0-0.79-0.01-2.3701-0.01-3.15c0.58-2.26,0.72-4.59,1.35-6.83c0.56-1.43,1.14-2.86,1.65-4.3
		c2.21-4.86,5.68-9.02,9.78-12.41c-1.51-6.48,1.62-12.57,4.98-17.88c1.84-2.76,3.8-5.8,7.2-6.76c2.93-1.9,5.88-3.82,9.17-5.08
		c1.4-0.35,2.63-1.1,3.83-1.88c-0.44-4.1-0.13-9.04,3.3-11.83c2.43-2.53,4.9-5.06,7.99-6.78c1.56-0.81,3.12-1.63,4.66-2.47
		c2.14-0.84,4.25-1.77,6.44-2.48c1.25-0.5,2.5-1.02,3.76-1.52c3.47-0.29,6.89-0.98,10.35-1.38
		C453.62,463.22,453.94,460.39,455.49,458.52 M461.83,476.03c3.28,2.4,7.3,3.37,10.76,5.46c9.51,5.4,18.45,11.93,26.15,19.71
		c7.51,9.08,13.65,19.49,16.94,30.86c0.95-3.24-0.25-6.56-1.08-9.69c-5.6-16.83-18.38-30.86-33.95-39.11
		C474.64,480.3,468.62,476.7,461.83,476.03 M420.06,498.42c17.78,3.8,34.75,11.99,48.28,24.21c7.6,6.9,13.26,15.72,16.93,25.27
		c1.2,3.2599,0.5,6.77,0.15,10.13c-0.85,6.86-2.33,14.0099-6.65,19.6c-3.81,4.48-9.65,5.84-14.95,7.66
		c5.49,1.43,11.57,0.09,15.95-3.53c5.04-3.97,7.22-10.38,8.57-16.43c2.98-0.7,5.94-1.54,8.87-2.44c-0.92,2.45-1.95,4.85-3.02,7.25
		c-6.4,14.32-7.2,30.98-2.56,45.93c0.35-1.68,0.58-3.39,0.49-5.1c-0.95-18.41,3.55-37.45,14.32-52.58
		c6.56-9.61,15.62-17.23,25.49-23.27c-8.15,1.46-15.57,5.72-21.97,10.84c-3.39,3.64-6.55,7.53-9.24,11.72
		c-2.36,3.98-7.67,3.33-11.63,4.14c-0.25-4.9,0.54-10.01-1.29-14.68c-1.07-2.25-2.34-4.39-3.31-6.68
		c-2.6-6.03-7.15-10.86-10.61-16.37c-4.43-4.31-9.59-7.77-14.46-11.54c-7.75-5.63-16.03-10.98-25.47-13.21
		C429.42,498.36,424.66,497.19,420.06,498.42 M399.85,532.99c1.24,0.83,2.5,1.67,3.86,2.34c16.19,7.65,31.84,17.66,42.97,31.93
		c4.19,5.27,6.99,11.44,9.47,17.66c1.47,4.1,2.5,8.81,0.74,13.01c-1.66,4.21-5.74,6.87-9.85,8.35c-6.41,2.15-13.5,2.42-20.02,0.5699
		c-3.82-1.15-7.71-4.45-7.17-8.83c-0.05-1.93,0.2-5.71,3.1-4.87c3.08,1,5.46,3.37,8.34,4.8c-0.74-1.3-1.45-2.64-2.58-3.62
		c-5.55-5-11.91-9.03-18.47-12.57c-1.65-0.92-3.47-1.41-5.3-1.78c4.07,3.9,9.14,6.75,12.65,11.22c-1.14,4.56-2.32,10,1.27,13.86
		c6.83,6.02,16.68,5.3,25.15,4.78c6.53-0.33,13.13-3.45,16.47-9.2401c2.55-5.43,2.84-11.9,0.44-17.43
		c-7.75-21.27-26.65-36.35-46.83-45.23C409.42,536.11,404.89,533.62,399.85,532.99z"/>
	<path fill="#F1D4A8" stroke="#F1D4A8" stroke-width="0.5" d="M1932.72,452.81c4.13-2.09,8.7101-3.15,13.3301-2.04
		c5.8999,1.64,11.84,5.21,14.35,11.06c0.35,1.18,1.37,1.82,2.36,2.5c3.45,0.45,6.87,1.11,10.37,1.38
		c1.23,0.51,2.4399,1.03,3.74,1.53c3.85,1.24,7.51,3.01,11.08,4.92c3.8601,2.24,6.91,5.57,9.87,8.85c1.52,2.99,1.88,6.48,1.4501,9.8
		c1.1699,0.78,2.4299,1.51,3.84,1.88c4.22,1.56,7.72,4.46,11.8,6.33c4.38,3.98,7.11,9.48,9.24,14.93c1.1,2.67,0.39,5.63,0.2899,8.42
		c4.0801,3.42,7.5901,7.58,9.8,12.47c0.47,1.43,1.0601,2.84,1.64,4.27c2.0599,6.21,0.84,12.62,0.4301,18.97
		c-1.4501,6.36-5.4,11.78-7.0601,18.09c-1.14,2.61-2.37,5.17-3.5699,7.74c-0.67,1.3-1.3101,2.61-1.92,3.9301
		c-1.77,3.53-3.74,6.96-5.49,10.5c-0.26,0.46-0.77,1.39-1.03,1.85c-0.54,0.8-1.0599,1.62-1.5599,2.43
		c-0.5,0.86-0.9801,1.72-1.42,2.59c-2.41,3.91-5.04,7.66-7.5,11.53c-0.83,1.17-1.66,2.33-2.47,3.5c-1.04,1.31-2.0601,2.63-3.04,3.97
		c-5.12,7.19-11.39,13.57-19.03,18.07c-3.7,1.62-6.39,4.78-9.76,6.92c-1.4399,1-2.85,2.02-4.26,3.03
		c-6.6499,4.75-13.5399,9.17-20.36,13.66c-3.4399,3.25-5,7.86-6.99,12.03c-3.71,6.67-7.8099,13.22-10.0499,20.57
		c-0.4501,0.11-1.37,0.33-1.8201,0.44c-2,3.07-3.34,6.51-5.16,9.68c0.05,1.47-0.4399,2.84-1.0599,4.15
		c-33.17,75.29-67.37,150.15-104.09,223.78c-16.8501,33.37-34,66.64-53.51,98.54c-6.12,9.74-12.3201,19.4601-19.5,28.4601
		c-4.36,5.64-9.77,10.33-14.38,15.75c-52.1,56.5-106.66,110.7799-164.1,161.86c-14.76,13.01-29.6001,25.9299-45.16,37.98
		c-15.09,11.6899-30.11,23.49-45.34,35.01c13.46-39.25,20.63-80.7001,20.7-122.21c-0.29-42.4601-8.36-85.7301-28.8199-123.28
		l-0.0701-0.12c49.38-28.65,98.8-57.21,148.22-85.78c2.3501-1.4,3.2101-4.22,4.78-6.33c19.92-30.88,44.24-58.73,70.35-84.51
		c5.24-5.46,11.4-9.94,16.5801-15.47c12.1599-12.71,22.58-26.95,32.5699-41.39c22.0601-32.34,41.58-66.32,60.4-100.61
		c18.0499-33.06,35.25-66.58,51.75-100.44c0.53-1.11,1.0499-2.38,2.41-2.68c1.11-4.05,1.72-8.22,2.63-12.31
		c0.84-4.78-0.4901-9.52-2.26-13.92c-1.1901-4.72-3.9301-8.8-5.65-13.31c-1.7001-3.63-3.5701-7.17-5.12-10.86
		c-1.05-2.26-2.3301-4.4-3.41-6.62c-0.6899-1.37-1.45-2.68-2.02-4.07c-3.1799-6.09-5.9199-12.41-9.51-18.28
		c-0.25-0.5-0.76-1.5-1.01-2.01c-1.2899-2.41-2.61-4.81-4-7.16c-6.0399-10.29-12.49-20.64-21.34-28.77
		c-2.8099-2.76-7.5599-3.03-9.35-6.86c-0.83-2.83,0.22-5.61,1.77-7.96c4.4199-7.61,10.28-14.82,18.46-18.55
		c6.29-2.31,13.3101-1.43,19.24,1.52c0.46,0.25,1.39,0.75,1.86,1c7.4,5.54,14.6,11.37,21.41,17.64
		c5.35,4.38,9.79,9.75,15.0601,14.22c0.12-1.68,0.4199-3.32,0.7999-4.95c0.62-9.83,4.8201-19.33,11.5701-26.5
		c10.5499-11.58,23.7-20.92,38.22-26.81C1926.26,455.68,1929.3,453.78,1932.72,452.81 M1940.73,479.6
		c-8.29,3.95-16.65,8.29-23.0599,15.01c-6.9601,6-12.25,13.75-16.04,22.07c-2.08,4.83-4.23,10.05-3.45,15.41
		c2.13-6.21,4.5199-12.36,7.99-17.96c3.85-6.28,7.88-12.68,13.6799-17.35c6.88-5.9,14.2001-11.31,22.15-15.67
		c3.33-1.87,7.14-2.82,10.23-5.15C1948.17,476.33,1944.4,477.97,1940.73,479.6 M1955.64,511.74c-6.58,5.34-14.59,9.54-18.8201,17.2
		c-4.7899,5.63-7.8199,12.41-10.88,19.07c-1.5,4.43-0.8799,9.17-0.95,13.76c-4.02-0.71-9.34-0.14-11.74-4.14
		c-2.72-4.15-5.8199-8.02-9.17-11.65c-6.4099-5.27-13.97-9.26-22.11-10.98c5.9401,3.94,11.9601,7.89,16.88,13.13
		C1914.41,563,1922,584.8,1922.03,606.06c0.0399,3.33-0.6,6.74,0.34,10.02c4.1801-13.54,3.9301-28.38-0.8099-41.72
		c-1.4501-3.94-3.4401-7.63-4.8401-11.58c2.9601,0.98,5.9501,1.8799,9.01,2.5699c1.39,6.7401,4.04,14.04,10.3101,17.7
		c4.11,2.72,9.21,3.01,13.99,2.53c-2.16-1.86-5.1801-1.8-7.66-2.94c-3.03-1.39-5.97-3.3-7.95-6.01
		c-3.78-5.7-5.1001-12.57-5.9601-19.23c-0.36-3.14-0.87-6.44,0.3-9.47c3.49-9.09,8.66-17.66,15.88-24.29
		c13.62-12.9,31.14-21.13,49.3099-25.36C1979.89,496.48,1966.6899,503.83,1955.64,511.74 M1999.25,538.21
		c-19.63,8.86-38.02,23.48-45.88,44.12c-3.4399,7.48-2.61,17.75,4.29,23.01c5.59,4.81,13.4299,4.6,20.37,4.87
		c6.11-0.05,12.99-1.05,17.5-5.58c3.27-3.9,1.9-9,0.85-13.42c3.48-4.52,8.61-7.3,12.6899-11.2c-5.96,1.15-10.85,5.05-15.8999,8.16
		c-3.7301,2.92-8.38,5.3-10.39,9.81c2.35-1.37,4.5-3.08,6.9299-4.34c1.2101-0.66,3.3301-1,3.8501,0.73
		c1.09,3.07,1.0299,7.25-1.6901,9.52c-3.8199,3.91-9.74,4.04-14.83,4.17c-6.7001-0.33-14.25-2.02-18.55-7.6
		c-4.1799-5.73-1.9399-13.26,0.77-19.09c6.65-16.76,21.0599-28.87,36.03-38.09c6-3.91,12.77-6.46,18.86-10.2
		C2008.85,533.6,2004.12,536.28,1999.25,538.21z"/>
	<path fill="#463626" stroke="#463626" stroke-width="0.5" d="M1216.84,469.25c36.4301-7.76,75.61-0.81,107.42,18.48
		c28.09,16.85,50.21,42.17,66.98,70.03c3.8,6.19,7.05,12.69,10.67,18.99l-0.91,0.3c-20.47,3.64-41.16,5.9-61.8101,8.21
		c-20.84,2.1-41.71,4.06-62.6299,5.13c11.6599-10.99,23.1299-23.59,27.2599-39.49c3.3101-11.27,0.8401-23.64-5.08-33.6
		c-6.46-11.28-16.91-19.64-28.09-25.94c-19.48-10.23-41.6901-13.92-63.5-14.38c0.01-0.79,0.0399-2.37,0.0599-3.16
		c0.4401,0.53,1.3301,1.59,1.77,2.12C1210.97,473.15,1213.23,469.93,1216.84,469.25z"/>
	<path fill="#E5BC84" stroke="#E5BC84" stroke-width="0.5" d="M461.83,476.03c6.79,0.67,12.81,4.27,18.82,7.23
		c15.57,8.25,28.35,22.28,33.95,39.11c0.83,3.13,2.03,6.45,1.08,9.69c-3.29-11.37-9.43-21.78-16.94-30.86
		c-7.7-7.78-16.64-14.31-26.15-19.71C469.13,479.4,465.11,478.43,461.83,476.03z"/>
	<path fill="#E5BC84" stroke="#E5BC84" stroke-width="0.5" d="M1940.73,479.6c3.67-1.63,7.4401-3.27,11.5-3.64
		c-3.09,2.33-6.9,3.28-10.23,5.15c-7.95,4.36-15.27,9.77-22.15,15.67c-5.7999,4.67-9.83,11.07-13.6799,17.35
		c-3.4701,5.6-5.86,11.75-7.99,17.96c-0.78-5.36,1.37-10.58,3.45-15.41c3.79-8.32,9.08-16.07,16.04-22.07
		C1924.08,487.89,1932.4399,483.55,1940.73,479.6z"/>
	<path fill="#E5BC84" stroke="#E5BC84" stroke-width="0.5" d="M420.06,498.42c4.6-1.23,9.36-0.06,13.89,0.92
		c9.44,2.23,17.72,7.58,25.47,13.21c4.87,3.77,10.03,7.23,14.46,11.54c3.46,5.5099,8.01,10.34,10.61,16.37
		c0.97,2.29,2.24,4.43,3.31,6.68c1.83,4.67,1.04,9.78,1.29,14.68c3.96-0.81,9.27-0.16,11.63-4.14c2.69-4.19,5.85-8.08,9.24-11.72
		c6.4-5.12,13.82-9.38,21.97-10.84c-9.87,6.04-18.93,13.66-25.49,23.27c-10.77,15.13-15.27,34.17-14.32,52.58
		c0.09,1.71-0.14,3.42-0.49,5.1c-4.64-14.95-3.84-31.61,2.56-45.93c1.07-2.4,2.1-4.8,3.02-7.25c-2.93,0.9-5.89,1.74-8.87,2.44
		c-1.35,6.05-3.53,12.46-8.57,16.43c-4.38,3.62-10.46,4.96-15.95,3.53c5.3-1.82,11.14-3.18,14.95-7.66
		c4.32-5.59,5.8-12.74,6.65-19.6c0.35-3.36,1.05-6.8701-0.15-10.13c-3.67-9.55-9.33-18.37-16.93-25.27
		C454.81,510.41,437.84,502.22,420.06,498.42z"/>
	<path fill="#E5BC84" stroke="#E5BC84" stroke-width="0.5" d="M1955.64,511.74c11.0499-7.91,24.25-15.26,38.3099-13.46
		c-18.1699,4.23-35.6899,12.46-49.3099,25.36c-7.22,6.63-12.39,15.2-15.88,24.29c-1.17,3.03-0.66,6.33-0.3,9.47
		c0.86,6.66,2.1801,13.53,5.9601,19.23c1.98,2.71,4.9199,4.62,7.95,6.01c2.48,1.14,5.5,1.08,7.66,2.94
		c-4.78,0.48-9.88,0.19-13.99-2.53c-6.27-3.66-8.92-10.96-10.3101-17.7c-3.0599-0.69-6.0499-1.59-9.01-2.5699
		c1.4,3.95,3.39,7.64,4.8401,11.58c4.74,13.34,4.99,28.18,0.8099,41.72c-0.9399-3.28-0.3-6.69-0.34-10.02
		c-0.03-21.26-7.62-43.06-23.1801-57.93c-4.9199-5.24-10.9399-9.19-16.88-13.13c8.14,1.72,15.7001,5.71,22.11,10.98
		c3.3501,3.63,6.4501,7.5,9.17,11.65c2.4,4,7.72,3.43,11.74,4.14c0.0701-4.59-0.55-9.33,0.95-13.76
		c3.0601-6.66,6.0901-13.44,10.88-19.07C1941.05,521.28,1949.0601,517.08,1955.64,511.74z"/>
	<path fill="#E5BC84" stroke="#E5BC84" stroke-width="0.5" d="M399.85,532.99c5.04,0.63,9.57,3.12,14.24,4.95
		c20.18,8.88,39.08,23.96,46.83,45.23c2.4,5.53,2.11,12-0.44,17.43c-3.34,5.79-9.94,8.91-16.47,9.2401
		c-8.47,0.52-18.32,1.24-25.15-4.78c-3.59-3.86-2.41-9.3-1.27-13.86c-3.51-4.47-8.58-7.32-12.65-11.22c1.83,0.37,3.65,0.86,5.3,1.78
		c6.56,3.54,12.92,7.57,18.47,12.57c1.13,0.98,1.84,2.32,2.58,3.62c-2.88-1.43-5.26-3.8-8.34-4.8c-2.9-0.84-3.15,2.94-3.1,4.87
		c-0.54,4.38,3.35,7.68,7.17,8.83c6.52,1.85,13.61,1.58,20.02-0.5699c4.11-1.48,8.19-4.14,9.85-8.35c1.76-4.2,0.73-8.91-0.74-13.01
		c-2.48-6.22-5.28-12.39-9.47-17.66c-11.13-14.27-26.78-24.28-42.97-31.93C402.35,534.66,401.09,533.82,399.85,532.99z"/>
	<path fill="#E5BC84" stroke="#E5BC84" stroke-width="0.5" d="M1999.25,538.21c4.87-1.93,9.6-4.61,14.9-5.13
		c-6.09,3.74-12.86,6.29-18.86,10.2c-14.9701,9.22-29.38,21.33-36.03,38.09c-2.71,5.83-4.95,13.36-0.77,19.09
		c4.3,5.58,11.85,7.27,18.55,7.6c5.09-0.13,11.01-0.26,14.83-4.17c2.72-2.27,2.78-6.45,1.6901-9.52
		c-0.52-1.73-2.64-1.39-3.8501-0.73c-2.4299,1.26-4.58,2.97-6.9299,4.34c2.01-4.51,6.6599-6.89,10.39-9.81
		c5.0499-3.11,9.9399-7.01,15.8999-8.16c-4.08,3.9-9.21,6.68-12.6899,11.2c1.05,4.42,2.42,9.52-0.85,13.42
		c-4.51,4.53-11.39,5.53-17.5,5.58c-6.9401-0.27-14.78-0.06-20.37-4.87c-6.9-5.26-7.73-15.53-4.29-23.01
		C1961.23,561.69,1979.62,547.07,1999.25,538.21z"/>
	<path fill="#7EA93E" stroke="#7EA93E" stroke-width="0.5" d="M997,569c2.41,0.69,4.83,1.38,7.25,2.08
		c18.52,5.31,37.42,9.24,56.4301,12.35c48.6799,7.8,98.08,10.27,147.34,9.65c-0.0601,39.97,0,79.95-0.01,119.93
		c-15.33-0.13-30.67-0.55-45.97-1.52c-7.16-0.25-14.3-1.52-21.4601-1.05c-4.4399-1.19-9.0399-1.23-13.58-1.6
		c-50.95-4.96-101.61-12.79-151.71-23.31c-5.45-1.13-10.89-2.29-16.32-3.52c-1.91-16.93,1.89-33.89,7.2-49.88
		C973.78,609.92,984.47,588.83,997,569z"/>
	<path fill="#719838" stroke="#719838" stroke-width="0.5" d="M1401,577.05c2.7-0.23,5.39-0.58,8.0699-1.08
		c7.9601,6.75,12.14,16.64,16.37,25.91c10.02,24.21,16.7201,49.63,22.5801,75.12c-3.48,1-6.96,1.98-10.4401,2.94
		c-24.21,6.5-48.6799,11.96-73.2799,16.74c-51.51,9.78-103.79,16.43-156.29,16.33c0.01-39.98-0.05-79.96,0.01-119.93
		c22.86-0.47,45.75-0.81,68.54-2.69c20.9199-1.07,41.7899-3.03,62.6299-5.13C1359.84,582.95,1380.53,580.69,1401,577.05z"/>
	<path fill="#463626" stroke="#463626" stroke-width="0.5" d="M1364.3,696.68c24.6-4.78,49.0699-10.24,73.2799-16.74
		c7.64,14.83,23.49,22.6,38.42,28.21c13.04,9.31,22.98,24.42,23.02,40.83c0.0599,10.28-3.73,20.22-9.25,28.78
		c-12.0701,18.16-21.84,38.08-27.02,59.33c-3.9399,16.31-4.8,33.99,1.37,49.87c3.36,9,9.21,16.84,16.08,23.47
		c0.5901,0.02,1.75,0.05,2.3401,0.06c13.71,11.27,26.5599,24.98,31.73,42.37c4.76,15.23,1.87,31.96-5.51,45.86
		c-8.67,16.52-21.95,30.22-36.63,41.54c-4.4401,2.08-9.05,4.26-14.02,4.5699c-18.9299,2.03-37.89,6.49-54.73,15.6001
		c-17.64,9.36-32.25,25.1899-37.91,44.5699c-10.4099-3.61-20.88-7.04-31.49-9.98c-0.33-7.47,1.17-15.2001,5.52-21.41
		c5.3101-8.61,13.72-14.54,21.88-20.2c16.12-10.91,33.4301-20.0901,48.51-32.51c12.23-10.15,24.11-21.69,30.49-36.54
		c4.73-10.47,5.04-23.06-0.27-33.38c-7.24-14.86-20.9399-25.15-34.9399-33.22c-9.1901-5.03-18.6001-9.79-28.5601-13.11
		c-2.08-0.84-4.63-1.26-5.86-3.34c-9.6899-13.9-11.1-31.77-9.0699-48.14c2.71-21.52,10.25-42.19,19.96-61.49
		c4.0499-7.97,6.58-16.73,7.16-25.66C1390.51,740.68,1378.77,716.72,1364.3,696.68z"/>
	<path fill="#644D35" stroke="#644D35" stroke-width="0.5" d="M975.29,685.53c50.1,10.52,100.7601,18.35,151.71,23.31
		c4.54,0.37,9.14,0.41,13.58,1.6c-8.8099,6.57-18.35,12.08-28.11,17.09c-5.63,2.5-11.1799,5.2-16.9299,7.4
		c-9.9601,3.36-19.9501,7.2-30.53,7.95c-3.14,1.34-5.12,4.41-7.25,6.95c-5.98,8.09-10.8,17.34-12.59,27.31l-0.0701,0.19
		c-5.0599,18.78-0.25,38.99,8.88,55.75c2.3201,5.64,2.22,11.94,2.92,17.93c1.12,19.74-0.09,40.58-9.5801,58.36
		c0.0801,0.24,0.25,0.72,0.3301,0.97c-2.17,1.19-4.0601,2.81-5.6,4.74c-4.51,5.29-10,10.04-16.6801,12.28
		c-3.37,1.16-7.02,1.29-10.32,2.65c-13.28,6.74-25.81,17.59-29.45,32.6c-3.71,16.06,2.22,32.55,10.77,46.05
		c3.77,5.67,7.33,11.82,13.13,15.68c2.96,2.26,6.36,3.8301,9.49,5.8401c6.38,5.88,13.36,11.1399,18.99,17.8199
		c15.0801,15.4,24.27,35.54,30.21,56.02c-7.5,2.25-14.95,4.66-22.36,7.1799c-3.6-13.6699-11.46-26.5199-23.35-34.46
		c-7.6-5.25-16.53-8.08-25.5-9.89c-24.18-6.2999-48.13-16.88-65.86-34.9399c-6.91-6.7201-9.7-16.32-11.68-25.46
		c-5.82-29.41,3.17-60.46,20.83-84.27c13.55-19,19.19-43.05,16.81-66.16c-1.95-18.48-7.44-36.88-17.52-52.59
		c-7.32-12.54-10.89-27.43-8.9-41.9c2.15-15.4901,9.59-30.1201,20.31-41.4301C962.07,711.06,969.51,698.44,975.29,685.53z"/>
	<path fill="#E5BC84" stroke="#E5BC84" stroke-width="0.5" d="M1208.01,713.01c52.5,0.1,104.78-6.55,156.29-16.33
		c14.47,20.04,26.21,44,24.5,69.34c-0.5801,8.93-3.1101,17.69-7.16,25.66c-9.71,19.3-17.25,39.97-19.96,61.49
		c-2.03,16.37-0.62,34.24,9.0699,48.14c1.23,2.08,3.78,2.5,5.86,3.34c-1.86,0.54-3.7,1.11-5.61,1.3199
		c-1.36-0.05-2.0601,0.61-2.1,1.96c-1.41,5.65-4.65,10.65-6.99,15.95c-5.9,11.78-12.28,23.32-19.3201,34.46
		c-0.0499,0.0699-0.15,0.23-0.2,0.3c-0.4401,0.68-1.33,2.03-1.77,2.71c-0.05,0.08-0.16,0.23-0.21,0.31c-1.26,1.9-2.53,3.8-3.8,5.69
		c-0.0599,0.08-0.16,0.23-0.21,0.31c-0.4601,0.66-1.37,1.9901-1.8201,2.66c-0.0599,0.07-0.1599,0.22-0.21,0.29
		c-0.9399,1.24-1.87,2.48-2.77,3.75c-0.0499,0.07-0.15,0.2-0.2,0.27c-1.77,2.39-3.5601,4.76-5.4301,7.07
		c-1.53,0.14-2.1899,0.98-1.98,2.5c-13.88,17.67-28.79,34.57-44.97,50.18c-0.03,0.6-0.1,1.8099-0.13,2.41
		c-1.02,9.0599-0.25,18.2-0.92,27.2899c0,1.3401-1.2,2.2101-1.83,3.29c0.91,7.26,1.45,14.54,1.66,21.86
		c0.12,1.85,0.4399,3.6901,0.71,5.55c1.3,41.6-3.1,83.34-12.0601,123.95c-5-5.58-8.46-12.29-12.85-18.3199
		c-33.51-49.5-66.95-99.0601-100.46-148.5701c-1.3201-1.9-2.48-3.9-3.52-5.9399c3.6801,1.63,6.66,4.36,9.79,6.8199
		c15.47,11.4401,31.5699,22.0701,48.51,31.2101c0.09-19.9501,0.2-39.91-0.04-59.8601c-7.96-2.1299-17-4.2-22.1-11.27
		c7.3199,1.68,14.49,4.48,22.14,4.22c0.0499-1.73,0.11-3.45,0.1899-5.15h0.89c17.1-1.1,33.64-9.04,45.27-21.61
		c5.29-5.61,9.71-12.02,13.22-18.87c3.1-5.68,4.5701-12.19,8.74-17.28c-4.1899,2.01-8.36,4.21-12.96,5.1
		c-10.38,1.88-21.09,0.11-30.88-3.56c-3.5701-1.3-7.47-3.08-11.26-1.55c-5.74,2.11-9.37,7.5-12.42,12.51
		c-0.26-0.35-0.7899-1.05-1.0499-1.4c0.6799-17.7,0.2899-35.44,0.25-53.15c-9.15-2.72-18.73-5.48-26.04-11.92
		c-1.91-1.56-2.86-3.86-3.86-6.01c9.86-2.79,19.9399-4.74,29.89-7.19C1208.14,828.96,1207.9301,770.98,1208.01,713.01
		 M1277.8101,734.68c-13.9401,5.01-28.16,13.17-34.6901,27.1c22.76-10.3701,46.7-17.89,70.89-24.16
		c19.47-4.82,39.08-9.32,58.95-12.22c-5.88-1.4-12-0.79-17.98-1.08C1329,724.3,1302.54,726.14,1277.8101,734.68 M1260.13,793.99
		l1.34-0.36c-6,5.52-11.9199,11.19-16.4299,18.05c10.24,4.83,21.6,6.49,32.5399,9.12c-0.3999,0.12-1.1899,0.37-1.58,0.49
		c5,0.65,9.95,1.8,15.03,1.88c17.6899,0.97,36.6-1.24,51.5-11.59c13.0699-9.09,23.87-21.2,32.4299-34.57
		c-17.83-4.86-36.47-7.03-54.9299-6.08C1298.48,772.6,1276.6801,779.74,1260.13,793.99z"/>
	<path fill="#F1D4A8" stroke="#F1D4A8" stroke-width="0.5" d="M1140.58,710.44c7.16-0.47,14.3,0.8,21.4601,1.05
		c15.2999,0.97,30.64,1.39,45.97,1.52c-0.08,57.97,0.13,115.95-0.11,173.93c-9.9501,2.45-20.03,4.4-29.89,7.19
		c1,2.15,1.95,4.45,3.86,6.01c7.3101,6.44,16.89,9.2,26.04,11.92c0.0399,17.71,0.4299,35.45-0.25,53.15
		c-3.4-4.53-6.86-9.82-12.66-11.37c-3.87-1.23-7.58,0.8799-11.14,2.08c-9.7999,3.56-20.54,5.23-30.85,3.12
		c-4.37-0.91-8.3101-3.05-12.29-4.97c4.9401,6.1,6.36,14.06,10.55,20.61c11.28,20.76,32.99,35.9,56.84,37.19
		c-0.08,1.7-0.14,3.42-0.1899,5.15c-7.65,0.26-14.8201-2.54-22.14-4.22c5.1,7.07,14.14,9.14,22.1,11.27
		c0.24,19.9501,0.13,39.91,0.04,59.8601c-16.9401-9.14-33.04-19.77-48.51-31.2101c-3.13-2.46-6.11-5.1899-9.79-6.8199
		c1.04,2.0399,2.2,4.0399,3.52,5.9399c33.51,49.51,66.95,99.0701,100.46,148.5701c4.39,6.0299,7.85,12.74,12.85,18.3199
		c-8.9099,40.48-22.86,79.92-42.2699,116.5701c-4.8401,8.96-9.76,17.9299-15.65,26.26c-1.3201-5.8501,0.58-11.7301,1.48-17.4901
		c1.84-9.95,6.14-19.13,10.09-28.35c-8.4299,3.99-10.75,13.9501-14.0699,21.8301c-3.14-6.0801-6.4501-12.3501-12.0601-16.53
		c2.88,5.63,6.0801,11.1699,7.78,17.33c2.6801,8.0801,3.62,16.5701,5.63,24.8201c-0.04,0.26-0.12,0.7799-0.16,1.0399
		c-11.76-13.84-19.5399-30.52-26.0399-47.34c-3.1001-7.8099-5.2301-15.97-8.4901-23.72
		c-23.3999-63.2101-37.62-130.5801-35.21-198.22c0.75-3.7401,0.66-7.55,0.5801-11.3301c0.34-5.1699,0.5499-10.34,1.2699-15.47
		c-0.72-1.25-1.49-2.54-1.39-4.02c-0.37-9.02,0.1801-18.1-0.84-27.0699c-0.1699-0.52-0.52-1.5701-0.6899-2.1001
		c-0.3-0.5399-0.9-1.61-1.2101-2.1499c-15.36-14.6201-29.1899-30.7401-42.59-47.16c-0.0499-0.07-0.16-0.21-0.21-0.28
		c-2.28-2.9-4.53-5.81-6.78-8.72c-0.05-0.07-0.16-0.21-0.21-0.28c-0.9501-1.2599-1.88-2.49-2.78-3.72c-0.05-0.08-0.16-0.22-0.21-0.3
		c-2.29-3.22-4.54-6.46-6.78-9.7c-0.05-0.08-0.15-0.23-0.2001-0.3c-8.9099-13.66-17.24-27.75-23.8899-42.65
		c-0.04-0.08-0.12-0.25-0.16-0.33c-1.4-2.94-2.74-5.92-3.74-9.0099c-0.0801-0.25-0.25-0.73-0.3301-0.97
		c9.4901-17.78,10.7001-38.62,9.5801-58.36c-0.7001-5.99-0.6-12.29-2.92-17.93c-9.13-16.76-13.9399-36.97-8.88-55.75
		c9.4401,14.06,20.86,27.2,35.36,36.21c13,7.87,28.61,10.04,43.5701,9.83c6.73-0.28,13.63-0.37,20.0599-2.62
		c10.29-3.05,21.14-4.44,30.9501-9.02c-4.5701-6.77-10.4-12.46-16.29-18.06l1.09,0.28c-12.59-10.96-28.5299-17.52-44.74-20.94
		c-16.7999-3.59-34.1899-2.63-51.0699-0.11c-6.3401,1.12-12.75,2.14-18.86,4.24c1.7899-9.97,6.61-19.22,12.59-27.31
		c2.13-2.54,4.11-5.61,7.25-6.95c10.58-0.75,20.5699-4.59,30.53-7.95c27.75,6.94,55.37,14.96,81.4299,26.9
		c-6.39-13.41-19.8199-21.58-33.26-26.59c-10.1-3.67-20.6-6.26-31.24-7.71C1122.23,722.52,1131.77,717.01,1140.58,710.44z"/>
	<path fill="#2C3D4D" stroke="#2C3D4D" stroke-width="0.5" d="M1277.8101,734.68c24.73-8.54,51.1899-10.38,77.1699-10.36
		c5.98,0.29,12.1-0.32,17.98,1.08c-19.87,2.9-39.48,7.4-58.95,12.22c-24.1901,6.27-48.13,13.79-70.89,24.16
		C1249.65,747.85,1263.87,739.69,1277.8101,734.68z"/>
	<path fill="#2C3D4D" stroke="#2C3D4D" stroke-width="0.5" d="M1095.54,734.93c5.75-2.2,11.2999-4.9,16.9299-7.4
		c10.64,1.45,21.14,4.04,31.24,7.71c13.4401,5.01,26.87,13.18,33.26,26.59C1150.91,749.89,1123.29,741.87,1095.54,734.93z"/>
	<path fill="#2C3D4D" stroke="#2C3D4D" stroke-width="0.5" d="M1064.03,772.9c16.88-2.52,34.27-3.48,51.0699,0.11
		c16.2101,3.42,32.15,9.98,44.74,20.94l-1.09-0.28c-8.86-3.14-17.97-5.47-27.08-7.73c2.0599,4.03,3.62,8.46,3.2899,13.07
		c-0.25,9.16-6.83,17.78-15.72,20.18c-9.6799,2.98-20.86-2.33-25.03-11.48c-4.47-8.91-1.87-20.23,5.5-26.78
		c-13-0.39-25.99,0.95-38.7899,3.08c5.38,14.7,18.1699,25.67,32.51,31.29c16.0099,6.26,33.7,7.63,50.6599,5.45
		c-6.4299,2.25-13.33,2.34-20.0599,2.62c-14.9601,0.21-30.5701-1.96-43.5701-9.83c-14.5-9.0099-25.9199-22.15-35.36-36.21
		l0.0701-0.19C1051.28,775.04,1057.6899,774.02,1064.03,772.9 M1123.25,788.36c-4.3,1.67-4.28,8.66,0.04,10.3
		c3.52,1.54,7.23-2.17,6.6799-5.71C1129.84,789.75,1126.35,786.95,1123.25,788.36z"/>
	<path fill="#2C3D4D" stroke="#2C3D4D" stroke-width="0.5" d="M1260.13,793.99c16.55-14.25,38.35-21.39,59.9-23.06
		c18.46-0.95,37.1,1.22,54.9299,6.08c-8.5599,13.37-19.36,25.48-32.4299,34.57c-14.9,10.35-33.8101,12.56-51.5,11.59
		c-5.0801-0.08-10.03-1.23-15.03-1.88c0.39-0.12,1.1801-0.37,1.58-0.49c17.39,2.25,35.6001,0.36,51.76-6.67
		c13.15-5.86,24.74-16.39,29.73-30.13c-12.8099-2.12-25.7899-3.46-38.7799-3.07c3.02,3.05,5.7,6.6,6.8099,10.82
		c2.24,7.55,0.15,16.25-5.4399,21.83c-5.77,6-15.28,8.15-22.99,4.9c-8.1801-3.18-13.77-11.7-13.65-20.43
		c-0.14-4.29,1.4199-8.34,3.2999-12.11c-9.0299,2.26-18.09,4.52-26.85,7.69L1260.13,793.99 M1312.21,788.37
		c-4.22,1.68-4.24,8.52-0.0399,10.25c3.1,1.46,6.6499-1.32,6.7999-4.53C1319.55,790.5,1315.77,786.74,1312.21,788.37z"/>
	<path fill="#FFFFFF" stroke="#FFFFFF" stroke-width="0.5" d="M1060.92,784.01c12.7999-2.13,25.7899-3.47,38.7899-3.08
		c-7.37,6.55-9.97,17.87-5.5,26.78c4.17,9.15,15.3501,14.46,25.03,11.48c8.89-2.4,15.47-11.02,15.72-20.18
		c0.3301-4.61-1.23-9.04-3.2899-13.07c9.11,2.26,18.22,4.59,27.08,7.73c5.89,5.6,11.72,11.29,16.29,18.06
		c-9.8101,4.58-20.66,5.97-30.9501,9.02c-16.96,2.18-34.65,0.81-50.6599-5.45C1079.09,809.68,1066.3,798.71,1060.92,784.01z"/>
	<path fill="#FFFFFF" stroke="#FFFFFF" stroke-width="0.5" d="M1320.29,780.93c12.99-0.39,25.97,0.95,38.7799,3.07
		c-4.99,13.74-16.58,24.27-29.73,30.13c-16.1599,7.03-34.37,8.92-51.76,6.67c-10.9399-2.63-22.2999-4.29-32.5399-9.12
		c4.51-6.86,10.4299-12.53,16.4299-18.05c8.76-3.17,17.8201-5.43,26.85-7.69c-1.88,3.77-3.4399,7.82-3.2999,12.11
		c-0.12,8.73,5.47,17.25,13.65,20.43c7.71,3.25,17.22,1.1,22.99-4.9c5.59-5.58,7.6799-14.28,5.4399-21.83
		C1325.99,787.53,1323.3101,783.98,1320.29,780.93z"/>
	<path fill="#FFFFFF" stroke="#FFFFFF" stroke-width="0.5" d="M1123.25,788.36c3.1-1.41,6.59,1.39,6.72,4.59
		c0.55,3.54-3.1599,7.25-6.6799,5.71C1118.97,797.02,1118.95,790.03,1123.25,788.36z"/>
	<path fill="#FFFFFF" stroke="#FFFFFF" stroke-width="0.5" d="M1312.21,788.37c3.5601-1.63,7.3401,2.13,6.76,5.72
		c-0.15,3.21-3.7,5.99-6.7999,4.53C1307.97,796.89,1307.99,790.05,1312.21,788.37z"/>
	<path fill="#301D16" stroke="#301D16" stroke-width="0.5" d="M1371,905.97c1.91-0.21,3.75-0.78,5.61-1.3199
		c9.96,3.3199,19.37,8.08,28.5601,13.11c14,8.07,27.7,18.36,34.9399,33.22c5.3101,10.32,5,22.91,0.27,33.38
		c-6.38,14.85-18.26,26.39-30.49,36.54c-15.08,12.4199-32.39,21.6-48.51,32.51c-8.16,5.6599-16.5699,11.59-21.88,20.2
		c-4.35,6.21-5.85,13.9401-5.52,21.41c-13.1-3.54-26.34-6.8301-39.86-8.23c-5.13-6.3501-10.55-12.4701-15.61-18.87
		c0.11-10.38,0.72-20.75,0.38-31.13c0.03-0.6001,0.1-1.8101,0.13-2.41c16.1799-15.61,31.09-32.51,44.97-50.18
		c1.23-0.38,1.89-1.21,1.98-2.5c1.87-2.31,3.66-4.68,5.4301-7.07c0.0499-0.07,0.15-0.2,0.2-0.27c0.9-1.27,1.8301-2.51,2.77-3.75
		c0.05-0.07,0.15-0.22,0.21-0.29c0.4501-0.67,1.36-2,1.8201-2.66c0.0499-0.08,0.15-0.23,0.21-0.31c1.27-1.89,2.54-3.79,3.8-5.69
		c0.0499-0.08,0.1599-0.23,0.21-0.31c0.4401-0.68,1.33-2.03,1.77-2.71c0.0499-0.07,0.15-0.23,0.2-0.3
		c7.04-11.14,13.42-22.6801,19.3201-34.46c2.34-5.3,5.58-10.3,6.99-15.95C1370.3199,908.05,1371.02,907.4,1371,905.97z"/>
	<path opacity="0.9" fill="#B69468" stroke="#B69468" stroke-width="0.5" enable-background="new    " d="M1368.9,907.93
		c0.0399-1.35,0.74-2.01,2.1-1.96C1371.02,907.4,1370.3199,908.05,1368.9,907.93z"/>
	<path fill="#301D16" stroke="#301D16" stroke-width="0.5" d="M1042.05,915.08c1.5399-1.93,3.4299-3.55,5.6-4.74
		c1,3.09,2.34,6.0699,3.74,9.0099c0.04,0.08,0.12,0.25,0.16,0.33c6.6499,14.9,14.98,28.99,23.8899,42.65
		c0.05,0.07,0.15,0.22,0.2001,0.3c2.24,3.24,4.49,6.48,6.78,9.7c0.0499,0.08,0.1599,0.22,0.21,0.3c0.9,1.23,1.83,2.46,2.78,3.72
		c0.0499,0.07,0.1599,0.21,0.21,0.28c2.25,2.91,4.5,5.82,6.78,8.72c0.0499,0.07,0.16,0.21,0.21,0.28
		c13.4,16.42,27.23,32.54,42.59,47.16c0.1001,0.45,0.29,1.36,0.39,1.8099l0.8201,0.34c0.1699,0.53,0.52,1.5801,0.6899,2.1001
		c0.63,6.2999,0.34,12.64,0.51,18.96c-0.0599,3.97,0.4401,7.99-0.22,11.9399c-3.8101,5.5-8.75,10.16-12.6901,15.5901
		c-2.96,3.12-4.9199,8.15-9.7699,8.5699c-15.7301,3.34-31.3201,7.35-46.7401,11.92c-5.9399-20.48-15.1299-40.62-30.21-56.02
		c-5.63-6.6801-12.61-11.9399-18.99-17.8199c-3.13-2.01-6.53-3.5801-9.49-5.8401c-5.8-3.86-9.36-10.0099-13.13-15.68
		c-8.55-13.5-14.48-29.99-10.77-46.05c3.64-15.01,16.17-25.86,29.45-32.6c3.3-1.36,6.95-1.49,10.32-2.65
		C1032.05,925.12,1037.54,920.37,1042.05,915.08z"/>
	<path opacity="0.83" fill="#9D866A" stroke="#9D866A" stroke-width="0.5" enable-background="new    " d="M1051.39,919.35
		c0.04,0.08,0.12,0.25,0.16,0.33C1051.51,919.6,1051.4301,919.43,1051.39,919.35z"/>
	<path fill="#E97954" stroke="#E97954" stroke-width="0.5" d="M1140.72,954.07c3.98,1.92,7.92,4.06,12.29,4.97
		c10.3099,2.11,21.05,0.44,30.85-3.12c3.5601-1.2,7.27-3.31,11.14-2.08c5.8,1.55,9.26,6.84,12.66,11.37
		c0.26,0.35,0.7899,1.05,1.0499,1.4c-0.22,0.38-0.6499,1.14-0.87,1.53c-2.35,0.15-4.6599,0.5-6.99,0.73
		c-17.36,1.08-35.96,1.6-51.85-6.59c6.76,11.96,16.05,22.75,28.01,29.75c9.3,5.55,20.1899,8.15,31,8.02l0.92-0.01
		c-0.0701,3.94-0.04,7.88,0.0699,11.83h-0.89c-23.85-1.29-45.5599-16.43-56.84-37.19C1147.08,968.13,1145.66,960.17,1140.72,954.07z
		"/>
	<path fill="#D47150" stroke="#D47150" stroke-width="0.5" d="M1208.71,966.61c3.05-5.01,6.6801-10.4,12.42-12.51
		c3.79-1.53,7.6899,0.25,11.26,1.55c9.79,3.67,20.5,5.44,30.88,3.56c4.6-0.89,8.77-3.09,12.96-5.1
		c-4.1699,5.09-5.64,11.6-8.74,17.28c-3.51,6.85-7.9299,13.26-13.22,18.87c-11.63,12.57-28.17,20.51-45.27,21.61
		c-0.11-3.95-0.14-7.89-0.0699-11.83c15.6,0.23,30.86-6.27,42.0599-17.02c6.0601-5.74,11.3101-12.38,15.26-19.75
		c-18.3199,8.08-38.97,6.59-58.41,4.87C1208.0601,967.75,1208.49,966.99,1208.71,966.61z"/>
	<path opacity="0.8" fill="#826849" stroke="#826849" stroke-width="0.5" enable-background="new    " d="M1342.39,958.64
		c0.0499-0.07,0.15-0.23,0.2-0.3C1342.54,958.41,1342.4399,958.57,1342.39,958.64z"/>
	<path opacity="0.83" fill="#947754" stroke="#947754" stroke-width="0.5" enable-background="new    " d="M1340.41,961.66
		c0.0499-0.08,0.1599-0.23,0.21-0.31C1340.5699,961.43,1340.46,961.58,1340.41,961.66z"/>
	<path opacity="0.77" fill="#73604C" stroke="#73604C" stroke-width="0.5" enable-background="new    " d="M1075.4399,962.33
		c0.05,0.07,0.15,0.22,0.2001,0.3C1075.59,962.55,1075.49,962.4,1075.4399,962.33z"/>
	<path fill="#FFFFFF" stroke="#FFFFFF" stroke-width="0.5" d="M1149,962.28c15.89,8.1899,34.49,7.67,51.85,6.59
		c2.35-0.05,4.7101,0.01,7.0801,0.07c0.2,10.36,0.0199,20.74,0.08,31.11c-10.8101,0.13-21.7-2.47-31-8.02
		C1165.05,985.03,1155.76,974.24,1149,962.28z"/>
	<path fill="#EBEBEB" stroke="#EBEBEB" stroke-width="0.5" d="M1207.84,968.14c19.4401,1.72,40.0901,3.21,58.41-4.87
		c-3.95,7.37-9.2,14.01-15.26,19.75c-11.2,10.75-26.46,17.25-42.0599,17.02l-0.92,0.01c-0.0601-10.37,0.12-20.75-0.08-31.11
		c-2.37-0.06-4.7301-0.12-7.0801-0.07C1203.1801,968.64,1205.49,968.29,1207.84,968.14z"/>
	<path opacity="0.8" fill="#846A4B" stroke="#846A4B" stroke-width="0.5" enable-background="new    " d="M1336.4,967.66
		c0.0499-0.08,0.15-0.23,0.21-0.31C1336.55,967.43,1336.45,967.58,1336.4,967.66z"/>
	<path opacity="0.77" fill="#6F573E" stroke="#6F573E" stroke-width="0.5" enable-background="new    " d="M1334.37,970.61
		c0.05-0.07,0.15-0.22,0.21-0.29C1334.52,970.39,1334.42,970.54,1334.37,970.61z"/>
	<path opacity="0.77" fill="#73604C" stroke="#73604C" stroke-width="0.5" enable-background="new    " d="M1082.42,972.33
		c0.0499,0.08,0.1599,0.22,0.21,0.3C1082.58,972.55,1082.47,972.41,1082.42,972.33z"/>
	<path opacity="0.8" fill="#856A4B" stroke="#856A4B" stroke-width="0.5" enable-background="new    " d="M1331.4,974.63
		c0.0499-0.07,0.15-0.2,0.2-0.27C1331.55,974.43,1331.45,974.56,1331.4,974.63z"/>
	<path opacity="0.78" fill="#7F6C55" stroke="#7F6C55" stroke-width="0.5" enable-background="new    " d="M1085.41,976.35
		c0.0499,0.07,0.1599,0.21,0.21,0.28C1085.5699,976.56,1085.46,976.42,1085.41,976.35z"/>
	<path opacity="0.89" fill="#B08F65" stroke="#B08F65" stroke-width="0.5" enable-background="new    " d="M1323.99,984.2
		c-0.21-1.52,0.45-2.36,1.98-2.5C1325.88,982.99,1325.22,983.82,1323.99,984.2z"/>
	<path opacity="0.79" fill="#87725B" stroke="#87725B" stroke-width="0.5" enable-background="new    " d="M1092.4,985.35
		c0.0499,0.07,0.16,0.21,0.21,0.28C1092.5601,985.56,1092.45,985.42,1092.4,985.35z"/>
	<path opacity="0.79" fill="#402F25" stroke="#402F25" stroke-width="0.5" enable-background="new    " d="M1135.2,1032.79
		c0.3101,0.5399,0.91,1.61,1.2101,2.1499l-0.8201-0.34C1135.49,1034.15,1135.3,1033.24,1135.2,1032.79z"/>
	<path fill="#338640" stroke="#338640" stroke-width="0.5" d="M1137.1,1037.04c1.02,8.97,0.47,18.0499,0.84,27.0699
		c-0.1,1.48,0.67,2.77,1.39,4.02c-0.72,5.13-0.9299,10.3-1.2699,15.47c-1.1901,3.67-1.4501,7.54-0.5801,11.3301
		c-2.41,67.6399,11.8101,135.0099,35.21,198.22c3.26,7.75,5.39,15.91,8.4901,23.72c6.5,16.8199,14.2799,33.5,26.0399,47.34
		c-0.33,2.65-0.3199,5.3301-0.27,8.02c-24.3099-29.79-41.88-64.6-54.45-100.8099c-18.16-52.8401-26.55-108.7201-27.72-164.4701
		c-0.26-7.8099,0.39-15.62-0.0801-23.4199c3.9401-5.4301,8.88-10.0901,12.6901-15.5901c0.66-3.95,0.16-7.97,0.22-11.9399
		C1137.4399,1049.6801,1137.73,1043.34,1137.1,1037.04z"/>
	<path opacity="0.92" fill="#A19364" stroke="#A19364" stroke-width="0.5" enable-background="new    " d="M1277.97,1064.08
		c0.67-9.09-0.1-18.23,0.92-27.2899c0.34,10.38-0.27,20.75-0.38,31.13c-0.41-0.2001-1.25-0.6001-1.66-0.79
		c0.78,5.8,0.73,11.66,1.3301,17.49c-0.15,1.52-0.28,3.0601-0.38,4.61c-0.2101-7.3199-0.75-14.6-1.66-21.86
		C1276.77,1066.29,1277.97,1065.42,1277.97,1064.08z"/>
	<path fill="#2E7839" stroke="#2E7839" stroke-width="0.5" d="M1276.85,1067.13c0.41,0.1899,1.25,0.59,1.66,0.79
		c5.0599,6.3999,10.48,12.5199,15.61,18.87c6.16,43.47-0.73,87.6699-12.62,129.59c-10.4301,36.6801-25.04,72.0599-41.89,106.23
		c-9.09,18.05-18.61,35.9401-29.47,53c-1.0701-0.9299-2.12-1.83-3.17-2.73l-0.02-0.65c-0.0499-2.6899-0.0599-5.37,0.27-8.02
		c0.04-0.26,0.12-0.7799,0.16-1.0399c0.29-0.4,0.86-1.2101,1.15-1.61c5.89-8.3301,10.8099-17.3,15.65-26.26
		c19.4099-36.65,33.36-76.0901,42.2699-116.5701c8.9601-40.61,13.3601-82.35,12.0601-123.95c0.76-3.39,0.5599-6.8401-0.33-10.16
		C1277.58,1078.79,1277.63,1072.9301,1276.85,1067.13z"/>
	<path fill="#83AA3D" stroke="#83AA3D" stroke-width="0.5" d="M945.46,1068.5699c27.4,15.91,54.79,31.8501,82.09,47.9301
		c1.37,1.17,3.0599,0.21,4.5199-0.26c4.54-1.8199,9.15-3.4299,13.76-5.04c7.41-2.5199,14.86-4.9299,22.36-7.1799
		c15.42-4.5701,31.01-8.5801,46.7401-11.92c4.85-0.4199,6.8099-5.45,9.7699-8.5699c0.4701,7.7999-0.1799,15.61,0.0801,23.4199
		c1.1699,55.75,9.5599,111.63,27.72,164.4701c12.5699,36.21,30.14,71.0199,54.45,100.8099l0.02,0.65
		c0.0701,83.08-0.03,166.15,0.0601,249.23c-62.16-3.83-123.47-17.9299-181.89-39.29c-1.75-0.6499-3.54-1.2899-4.94-2.5399
		c-3.54-19.54-7.88-38.9501-13.17-58.1c-0.4301,0.33-1.28,1-1.71,1.33c-0.91-5.99-5.96-9.8201-9.2-14.54
		c-23.71-31.6-36.89-69.77-44.94-108.09c-5.62-26.92-8.49-54.34-9.68-81.79c0.11-2.5499-2.85-3.39-4.25-5.02
		c-12.97-38.2899-20-78.6399-20.52-119.0599C916.27,1151.4399,924.63,1107.13,945.46,1068.5699z"/>
	<path fill="#769937" stroke="#769937" stroke-width="0.5" d="M1390.0699,1114.13c26.29-14.89,52.17-30.61,78.4901-45.48
		c20.46,37.5499,28.5299,80.8199,28.8199,123.28c-0.0699,41.5099-7.24,82.96-20.7,122.21l-0.0901,0.27
		c-1.5399,1.2999-4.1899,2.24-4.0699,4.64c-2.0601,46.2-8.74,92.73-25.4,136.09c-8.03,20.58-18.3,40.5499-32.34,57.7
		c-2.6801,2.17-3.4,5.5901-4.4501,8.7001c-7.3099,21.1499-13.0299,42.8199-17.8999,64.6499
		c-33.38,18.4501-70.65,29.2001-108.41,33.7401c-25.52,3.1599-51.3301,3.5599-76.99,2.1799c-0.0901-83.08,0.01-166.15-0.0601-249.23
		c1.05,0.9,2.1,1.8,3.17,2.73c10.86-17.0599,20.38-34.95,29.47-53c16.85-34.17,31.46-69.5499,41.89-106.23
		c11.89-41.92,18.78-86.12,12.62-129.59c13.52,1.3999,26.76,4.6899,39.86,8.23c10.61,2.9399,21.0801,6.37,31.49,9.98
		C1373.7,1107.9301,1381.84,1111.16,1390.0699,1114.13z"/>
	<path opacity="0.98" fill="#315F30" stroke="#315F30" stroke-width="0.5" enable-background="new    " d="M1137.48,1094.9301
		c-0.87-3.79-0.61-7.66,0.5801-11.3301C1138.14,1087.38,1138.23,1091.1899,1137.48,1094.9301z"/>
	<path opacity="0.97" fill="#2E572D" stroke="#2E572D" stroke-width="0.5" enable-background="new    " d="M1278.1801,1084.62
		c0.8899,3.3199,1.09,6.77,0.33,10.16c-0.27-1.86-0.59-3.7001-0.71-5.55C1277.9,1087.6801,1278.03,1086.14,1278.1801,1084.62z"/>
	<path fill="#E5BC84" stroke="#E5BC84" stroke-width="0.5" d="M1206.03,1337.55c3.3199-7.88,5.64-17.8401,14.0699-21.8301
		c-3.95,9.22-8.25,18.4-10.09,28.35c-0.9,5.76-2.8,11.64-1.48,17.4901c-0.29,0.3999-0.86,1.21-1.15,1.61
		c-2.01-8.25-2.95-16.74-5.63-24.8201c-1.7-6.16-4.9-11.7-7.78-17.33C1199.58,1325.2,1202.89,1331.47,1206.03,1337.55z"/>
	<path fill="#FFFFFF" stroke="#FFFFFF" stroke-width="0.5" d="M1020.2,1580.28c1.4,1.25,3.19,1.89,4.94,2.5399
		c58.42,21.3601,119.73,35.4601,181.89,39.29c-0.0601,15.22-0.0701,30.4501,0.0499,45.6801c1.36,0.33,2.74,0.72,4.15,1.0499
		c-1.4399-0.11-2.87-0.2-4.27-0.27c-62.2999-4.34-122.5-23.21-180.23-46.13C1024.95,1608.33,1022.87,1594.25,1020.2,1580.28z"/>
	<path fill="#E5E5E5" stroke="#E5E5E5" stroke-width="0.5" d="M1284.02,1619.9301c37.76-4.54,75.03-15.29,108.41-33.7401
		c-2.63,11.6201-4.7101,23.3501-6.89,35.0701c-5.76,3.59-10.98,7.99-16.9301,11.28c-35.14,20.47-75.17,31.76-115.54,35.39
		c-13.9099,1.2699-27.9099,1.6699-41.84,0.9099c-1.41-0.33-2.79-0.72-4.15-1.0499c-0.12-15.23-0.11-30.4601-0.0499-45.6801
		C1232.6899,1623.49,1258.5,1623.09,1284.02,1619.9301z"/>
	<path fill="#E5BC84" stroke="#E5BC84" stroke-width="0.5" d="M1368.61,1632.54c5.9501-3.29,11.17-7.6901,16.9301-11.28
		c-10.91,66.28-13.03,134.22-3.66,200.83l-0.73,0.35c-29.54,14.4401-61.42,23.42-93.5701,29.89
		c-26.8999,5.42-54.2,8.7001-81.5699,10.61c0.1899-18.97-0.1801-37.95,0.6-56.8999c-0.11-45.8201,0.25-91.65,0.35-137.4701
		c1.4,0.0701,2.8301,0.16,4.27,0.27c13.9301,0.76,27.9301,0.36,41.84-0.9099C1293.4399,1664.3,1333.47,1653.01,1368.61,1632.54z"/>
	<path fill="#F1D4A8" stroke="#F1D4A8" stroke-width="0.5" d="M1026.73,1622.4399c57.73,22.92,117.9301,41.79,180.23,46.13
		c-0.1,45.8201-0.46,91.65-0.35,137.4701c-0.78,18.95-0.41,37.9299-0.6,56.8999c-7.74-0.11-15.37-1.58-23.03-2.5099
		c-36.46-5.3-72.87-12.0901-107.9399-23.5701c-20.91-6.78-41.4301-14.7-61.79-22.98c0.14-1.62,0.28-3.22,0.48-4.79
		c8.96-23.6899,13.74-48.7899,16.0701-73.96C1033.16,1697.61,1031.4,1659.77,1026.73,1622.4399z"/>
	<path fill="#5D544F" stroke="#5D544F" stroke-width="0.5" d="M977.82,2158.8999c3.63-117.2499,15.94-234.2499,35.91-349.8099
		c-0.2,1.5701-0.34,3.17-0.48,4.79c20.36,8.28,40.88,16.2,61.79,22.98c35.0699,11.48,71.48,18.27,107.9399,23.5701
		c7.66,0.9299,15.29,2.3999,23.03,2.5099c-0.03,104.9,0,209.8-0.01,314.7c-5.47-0.5999-10.78-2.1499-15.75-4.46
		c2.23,30.8801,1.42,61.8901,2.04,92.8401c0.4399,58.6799-0.3401,117.3699-3.02,175.99c-2.41,56.04-5.65,112.04-9.3201,168.01
		c-3.45,50.3101-5.51,100.7-8.58,151.05c-1.41,24.3599-2.99,48.71-4.46,73.0798c-17.15,13.01-38.4401,19.9502-59.8301,21.24
		c-27.45,1.7102-54.73-4.8699-80.1799-14.74c-6.26-36.5298-11.64-73.23-15.71-110.0698c-0.88-7.1301-1.65-14.3301-0.66-21.48
		c2.79-26.6602,16.38-51.53,35.4399-70.1001c-14.96-30.9399-24.75-64.0901-32.77-97.4199c0.9-1.0901,0.29-2.3901,0.05-3.5
		c-6.03-21.4001-10.36-43.23-14.25-65.1001c-5.07-28.8201-9.22-57.8-12.81-86.8401c-0.61-3.0398-1.68-5.98-1.72-9.0898
		C977.18,2304.6001,975.73,2231.6499,977.82,2158.8999z"/>
	<path fill="#544B47" stroke="#544B47" stroke-width="0.5" d="M1287.58,1852.33c32.15-6.47,64.03-15.45,93.5701-29.89
		c16.37,64.7001,30.0399,130.1001,40.59,196c9.27,58.45,16.02,117.3801,18,176.55c1.78,53.74-0.02,107.5601-4.48,161.1301
		c-4.08,49.6199-11.3201,98.96-21.0701,147.7798C1404.6,2550,1393.52,2596.3501,1373.0601,2639
		c19.25,18.75,32.9099,43.95,35.5199,70.9099c1.17,9.3801-0.7,18.74-1.62,28.0701c-3.34,30.3401-8.01,60.51-12.6899,90.6699
		l-0.13-0.26c-0.15-0.2898-0.4401-0.8799-0.58-1.1699c-16.1101,9.7-34,16.53-52.51,19.8301
		c-30.16,5.3999-61.9401,0.1699-89.02-14.0701c-3.37-51-5.8401-102.05-9.64-153.01c-3.9301-53.98-7.5701-107.97-10.86-161.99
		c-3.01-50.95-5.9401-101.8999-7.65-152.9099c-2.2-64.5901-2.7-129.24-2.0699-193.8601c-3.5701,5-9.9301,6.76-15.8101,6.4299
		c0.01-104.8999-0.02-209.7999,0.01-314.7C1233.38,1861.03,1260.6801,1857.75,1287.58,1852.33z"/>
	<path fill="#E5BC84" stroke="#E5BC84" stroke-width="0.5" d="M1393.5601,2827.22c0.1399,0.29,0.4299,0.8801,0.58,1.1699
		c-13.12,78.9802-30.75,157.3101-54.88,233.6702c-0.9301,11-0.5,22.0999-0.6,33.1499c-3.66-1.5701-7-3.78-10.79-4.98
		c-7.04-2.6199-14.71-2.0901-22.03-1.49c-11.74,1.49-22.65,7.79-29.9299,17.0801c-2.11,2.73-3.3401,6.03-5.39,8.8198
		c-1.85,2.0601-4.54,3.0801-6.9,4.4602c3.05-12.8201,5.12-25.9102,5.5601-39.0901c0.5499-8.54-0.9601-17-1.41-25.49
		c-5.77-73.8101-11-147.6599-15.74-221.54c27.08,14.24,58.86,19.47,89.02,14.0701
		C1359.5601,2843.75,1377.45,2836.9199,1393.5601,2827.22z"/>
	<path fill="#F1D4A8" stroke="#F1D4A8" stroke-width="0.5" d="M1107.08,2855.3899c21.39-1.2898,42.6801-8.23,59.8301-21.24
		c-4.9401,76.3101-10.3301,152.6001-16.35,228.8401c-1.9501,15.98-0.1101,32.2,3.0699,47.9099c0.08,1.1702,1.27,3.75-0.55,4.29
		c-1.38-0.4099-1.4399-2.1699-2.14-3.1199c-0.5199-1.1301-1.0599-2.1902-1.59-3.22c-0.34-0.5-1.02-1.52-1.36-2.03
		c-1.23-1.6501-2.48-3.26-3.73-4.8501c-0.17-1.46-0.96-2.1699-2.38-2.1299c-0.91-0.6401-1.8101-1.26-2.6901-1.8101
		c-0.36-1.3101-1.2-1.98-2.5-2.02c-4.36-3.1001-9.33-5.25-14.5599-6.3c-1.17-1.0601-2.72-1.25-4.15-0.8599l-0.48-0.0701
		c-5.62-1.24-11.5-1.1501-17.15-0.1699c-4.02,0.6799-7.84,2.1799-11.45,4.0298c-0.51,0.3301-1.54,1.01-2.05,1.3401
		c-1.11,0.6301-2.2,1.3-3.2999,1.98c-0.77,0.46-1.5901,0.75-2.4601,0.8701c-1.38-3.79-0.51-7.9001-0.73-11.8
		c-0.21-7.8101,0.26-15.7-0.73-23.4299c-22.95-72.24-39.73-146.3201-52.73-220.9502
		C1052.35,2850.52,1079.63,2857.1001,1107.08,2855.3899z"/>
	<path opacity="0.78" fill="#91955A" stroke="#91955A" stroke-width="0.5" enable-background="new    " d="M1100.35,3088.6101
		c5.65-0.9802,11.53-1.0701,17.15,0.1699C1111.78,3088.95,1106.0601,3088.8,1100.35,3088.6101z"/>
	<path fill="#83AA3D" stroke="#83AA3D" stroke-width="0.5" d="M1088.9,3092.6399c3.61-1.8499,7.4299-3.3499,11.45-4.0298
		c5.7101,0.1899,11.4301,0.3398,17.15,0.1699l0.48,0.0701c0.84,1.5,2.71,1.6399,4.15,0.8599c5.23,1.05,10.2,3.2,14.5599,6.3
		c0.14,1.46,0.9801,2.1299,2.5,2.02c0.88,0.55,1.78,1.1699,2.6901,1.8101c0.1801,1.3298,0.98,2.0398,2.38,2.1299
		c1.25,1.5901,2.5,3.2,3.73,4.8501c0.34,0.51,1.02,1.53,1.36,2.03c0.53,1.0298,1.0701,2.0898,1.59,3.22
		c0.17,1.0798,0.3401,2.21,0.52,3.3699c9.02,3.04,15.5601,10.8201,20.48,18.6501c2.8701,4.0598,3.7401,9.0498,5.1801,13.73
		c4.13,17.04,5.92,34.6299,5.52,52.1499c-0.25,8.73,0.4399,17.99-3.9301,25.9399c0.9401,1.9202,0.5,4.0901,0.5601,6.2002
		c0.74,11.24,3.4,22.26,7.08,32.8899c6.1,15.9199,9.73,32.96,9.52,50.0701c0.78,5.54,0.79,11.1499,0.8101,16.76
		C1162.4,3346.6699,1123.9399,3352.1499,1087,3346c-26.38-4.3401-52.05-13.8201-74.42-28.51c-0.32-5.6001,0.62-11.0701,1.71-16.5
		c0.66-11.28,3.93-22.1599,6.46-33.1101c2.76-11.95,7.27-23.5798,8.13-35.8899c1.37-6.25,0.28-12.6599,1.03-18.9399
		c0.72-6.77,1.89-13.6001,4.5-19.9001c4.1-7.1299,3.85-15.72,7.1599-23.1299c1.4901-9.71,2.79-19.46,4.8501-29.05
		c1.35-7.1899,5.4399-13.3699,8.6799-19.78c2.84-3.4399,7.0601-5.1699,11.03-6.9099c5.74-5.7,9.11-14.3201,17.35-17.01l-0.73-0.8401
		l0.8-0.47c1.1-0.6799,2.1899-1.3499,3.2999-1.98C1087.36,3093.6499,1088.39,3092.97,1088.9,3092.6399 M1047.0601,3269.7
		c1.1799-0.0601,2.37-0.0701,3.58-0.1299c32.25-6.45,65.99-8.9001,98.33-1.6401c6.17,1.1902,11.9301,3.8901,18.1,5.0901
		c-15.95-11.3201-35.7699-16.3-55.1599-16.3601C1089.6899,3256.3501,1067.5699,3261.3201,1047.0601,3269.7z"/>
	<path opacity="0.8" fill="#97995E" stroke="#97995E" stroke-width="0.5" enable-background="new    " d="M1117.98,3088.8501
		c1.4301-0.3901,2.98-0.2002,4.15,0.8599C1120.6899,3090.49,1118.8199,3090.3501,1117.98,3088.8501z"/>
	<path fill="#769937" stroke="#769937" stroke-width="0.5" d="M1275.91,3105.8201c7.2799-9.29,18.1899-15.5901,29.9299-17.0801
		c6.9301-0.1899,14.11-0.9399,20.78,1.46c4.12,1.2,7.72,3.5701,11.55,5.4299c4.3199,3.3801,8.7999,6.77,11.87,11.4202
		c1.63,2.6199,3.76,4.8799,5.84,7.2c3.98,1.77,8.27,3.49,11.09,7.01c3.22,6.3799,7.28,12.53,8.63,19.6699
		c2.05,9.5901,3.3201,19.3301,4.84,29.01c3.3201,7.49,3.0801,16.1602,7.2401,23.3401c2.5699,6.24,3.7,13,4.4299,19.7
		c0.72,6.3101-0.3199,12.73,1.03,19c0.85,12,5.15,23.3501,7.9,34.99c2.74,11.54,6.0599,23.04,6.8099,34.9399
		c1.1901,5.1001,1.8101,10.3101,1.59,15.5801c-30.84,20.1001-67.6499,30.78-104.4199,30.99
		c-27.37,0.1699-54.61-5.8999-79.73-16.6499c0.01-5.6501,0.0299-11.29,0.8199-16.8601c-0.28-14.3899,2.55-28.6599,6.72-42.3599
		c4.6901-12.0601,8.38-24.5901,9.65-37.49c0.6-3.0801-0.46-6.3,0.79-9.2102c-1.73-3.72-3.23-7.6099-3.46-11.72
		c-1.4501-25.3999-0.2201-51.4299,7.87-75.73c3.7-7.53,8.9399-14.6199,15.9399-19.3599c2.36-1.3801,5.05-2.4001,6.9-4.4602
		C1272.5699,3111.8501,1273.8,3108.55,1275.91,3105.8201 M1255.11,3272.75c0.8201-0.1001,1.66-0.1899,2.51-0.27
		c31.76-11.23,66.4-10.51,99.3101-5.51c6.0599,0.6401,11.9399,2.77,18.0699,2.72c-22.1-8.96-46.0601-14.05-69.97-12.8799
		C1287.36,3257.52,1269.78,3262.77,1255.11,3272.75z"/>
	<path opacity="0.79" fill="#979860" stroke="#979860" stroke-width="0.5" enable-background="new    " d="M1086.85,3093.98
		c0.51-0.3301,1.54-1.01,2.05-1.3401C1088.39,3092.97,1087.36,3093.6499,1086.85,3093.98z"/>
	<path opacity="0.84" fill="#A0A264" stroke="#A0A264" stroke-width="0.5" enable-background="new    " d="M1136.6899,3096.01
		c1.3,0.04,2.14,0.71,2.5,2.02C1137.67,3098.1399,1136.83,3097.47,1136.6899,3096.01z"/>
	<path opacity="0.88" fill="#CFB88F" stroke="#CFB88F" stroke-width="0.5" enable-background="new    " d="M1141.88,3099.8401
		c1.42-0.04,2.21,0.6699,2.38,2.1299C1142.86,3101.8799,1142.0601,3101.1699,1141.88,3099.8401z"/>
	<path opacity="0.81" fill="#999B5F" stroke="#999B5F" stroke-width="0.5" enable-background="new    " d="M1147.99,3106.8201
		c0.34,0.51,1.02,1.53,1.36,2.03C1149.01,3108.3501,1148.33,3107.3301,1147.99,3106.8201z"/>
	<path fill="#A8D45A" stroke="#A8D45A" stroke-width="0.5" d="M1047.0601,3269.7c20.5099-8.3799,42.6299-13.3499,64.85-13.04
		c19.39,0.0601,39.21,5.04,55.1599,16.3601c-6.1699-1.2-11.9299-3.8999-18.1-5.0901c-32.34-7.26-66.08-4.8098-98.33,1.6401
		C1049.4301,3269.6299,1048.24,3269.6399,1047.0601,3269.7z"/>
	<path fill="#97BE51" stroke="#97BE51" stroke-width="0.5" d="M1255.11,3272.75c14.67-9.98,32.25-15.23,49.92-15.9399
		c23.9099-1.1702,47.87,3.9199,69.97,12.8799c-6.13,0.05-12.01-2.0798-18.0699-2.72c-32.91-5-67.55-5.72-99.3101,5.51
		C1256.77,3272.5601,1255.9301,3272.6499,1255.11,3272.75z"/>
	<path fill="#FFFFFF" stroke="#FFFFFF" stroke-width="0.5" d="M1012.58,3317.49c22.3699,14.6899,48.04,24.1699,74.42,28.51
		c36.9399,6.1499,75.4,0.6699,109.6801-14.1699c0.23,7.4299-1.17,14.79-2.7301,22.04c-0.9299,4.7998-3.23,9.24-5.6699,13.45
		c-5.63,3.53-12.14,5.3599-18.41,7.4099c-34.09,10.1001-70.6801,8.3401-104.97,0.1599c-10.8101-2.6199-21.51-5.7798-31.85-9.8599
		c-8.17-3.5-11.92-12.26-15.02-19.98C1015.08,3336.1599,1012.78,3326.8799,1012.58,3317.49z"/>
	<path fill="#E5E5E5" stroke="#E5E5E5" stroke-width="0.5" d="M1305.02,3348.48c36.77-0.21,73.58-10.8899,104.4199-30.99
		c-0.21,9.4099-2.5199,18.7-5.46,27.6101c-3.1899,7.99-7.22,17.1299-15.9199,20.3298
		c-23.1101,8.6802-47.4601,14.1101-72.0901,15.8201c-23.9399,1.5801-48.37-0.8301-71.0599-8.8601
		c-3.8401-1.4399-7.77-2.7798-11.1901-5.0398c-6.59-10.52-8.1599-23.3601-8.4299-35.52
		C1250.41,3342.5801,1277.65,3348.6499,1305.02,3348.48z"/>
</g>
</svg>
